<svg xmlns="http://www.w3.org/2000/svg" viewBox="0 0 27 18.03">
  <g>
    <path d="M24.75,0H2.22A2.56,2.56,0,0,0,0,2.17v13.7A2.56,2.56,0,0,0,2.53,18h21.9A2.56,2.56,0,0,0,27,15.48V2.56A2.55,2.55,0,0,0,24.75,0h0Z" fill="#4658a9"/>
    <path d="M9.55,0h-7A2.51,2.51,0,0,0,.05,2.5V9H9.56V0h0Z" fill="#4658a9"/>
    <path d="M4.06,6.54V9H5.55V6.48L8.1,9H9.55V7.87L6.89,5.25H9.55V3.75H6.89L9.55,1.12V0H8.09L5.55,2.51V0H4.06V2.46L1.72,0.15A2.52,2.52,0,0,0,.34,1.34l2.44,2.4H0.05v1.5H2.78L0.05,7.93V9H1.57Z" fill="#fff"/>
    <path d="M4.44,5.51V9H5.16V5.46L8.75,9H9.54V8.53L5.82,4.86H9.54V4.14H5.82L9.54,0.47V0H8.75L5.15,3.56V0H4.43V3.5L1.26,0.38A2.52,2.52,0,0,0,.59,1L3.82,4.14H0V4.87H3.82L0,8.6V9H0.89Z" fill="#ec5463"/>
    <path d="M15.91,4.85c-0.12.09-.19,0-0.16-0.11l0.13-.54a0.48,0.48,0,0,0-.14-0.44l-0.38-.34c-0.11-.1-0.08-0.18.06-0.18H16A0.4,0.4,0,0,0,16.33,3l0.17-.59c0-.14.12-0.15,0.17,0L16.88,3a0.42,0.42,0,0,0,.38.26h0.57c0.15,0,.18.08,0.06,0.18l-0.43.37a0.46,0.46,0,0,0-.13.44l0.14,0.47c0,0.14,0,.2-0.16.12l-0.46-.28a0.45,0.45,0,0,0-.45,0Zm4.56,1.5c-0.12.09-.19,0-0.16-0.11l0.13-.54a0.48,0.48,0,0,0-.14-0.44l-0.38-.34c-0.11-.1-0.08-0.18.06-0.18h0.56a0.4,0.4,0,0,0,.35-0.27l0.17-.59c0-.14.12-0.15,0.17,0l0.21,0.58a0.42,0.42,0,0,0,.38.26h0.57c0.15,0,.18.08,0.07,0.18L22,5.27a0.46,0.46,0,0,0-.13.44L22,6.18c0,0.14,0,.2-0.16.12L21.42,6A0.45,0.45,0,0,0,21,6l-0.49.33h0ZM13.63,9c-0.12.09-.19,0-0.15-0.11l0.13-.54a0.48,0.48,0,0,0-.14-0.44l-0.38-.34C13,7.45,13,7.36,13.15,7.36H13.7A0.4,0.4,0,0,0,14,7.09l0.18-.59c0-.14.12-0.15,0.17,0L14.6,7.08a0.42,0.42,0,0,0,.38.26h0.57c0.15,0,.18.08,0.06,0.18l-0.43.37a0.46,0.46,0,0,0-.13.44L15.19,8.8c0,0.14,0,.19-0.15.12l-0.46-.28a0.45,0.45,0,0,0-.45,0ZM4.29,15c-0.16.11-.25,0-0.2-0.14l0.17-.69a0.62,0.62,0,0,0-.18-0.56l-0.51-.44c-0.14-.12-0.11-0.23.08-0.24l0.72,0a0.51,0.51,0,0,0,.45-0.34L5,11.78c0.05-.18.15-0.19,0.22,0l0.27,0.75a0.54,0.54,0,0,0,.47.33H6.72c0.19,0,.23.1,0.09,0.23l-0.55.48a0.59,0.59,0,0,0-.17.56l0.18,0.61c0.05,0.18,0,.25-0.2.15l-0.59-.37a0.58,0.58,0,0,0-.58,0L4.29,15h0Zm14.85-4.1c-0.09.06-.14,0-0.11-0.07l0.09-.37A0.35,0.35,0,0,0,19,10.1l-0.29-.24c-0.08-.07-0.06-0.13,0-0.13h0.38a0.29,0.29,0,0,0,.25-0.19l0.13-.42c0-.1.08-0.1,0.12,0l0.15,0.41a0.3,0.3,0,0,0,.26.18h0.41c0.11,0,.13.06,0,0.13l-0.31.27a0.33,0.33,0,0,0-.06.31l0.1,0.34c0,0.1,0,.14-0.11.09l-0.33-.2a0.32,0.32,0,0,0-.32,0Z" fill="#fff"/>
  </g>
</svg>
