<svg xmlns="http://www.w3.org/2000/svg" viewBox="0 0 17.83 17.56">
  <title>btc</title>
  <path class="cls-1" d="M8.92,17.56A8.85,8.85,0,0,1,0,8.78,8.85,8.85,0,0,1,8.92,0a8.85,8.85,0,0,1,8.91,8.78,8.85,8.85,0,0,1-8.91,8.78h0ZM6.5,4.29s0,0,.09-0.06l-0.25.94c0,0.05,0,.08.06,0.08,0.22,0.05.48,0.11,0.73,0.19A0.48,0.48,0,0,1,7.45,6c-0.34,1.44-.7,2.85-1.07,4.26a0.31,0.31,0,0,1-.42.25,5,5,0,0,1-.62-0.14c-0.08,0-.11,0-0.14.08s-0.2.47-.31,0.72-0.08.19-.14,0.31l2,0.5a0.62,0.62,0,0,1,0,.11c-0.14.44-.25,0.91-0.37,1.39,0,0.06,0,.08.06,0.11,0.28,0.06.56,0.11,0.84,0.19,0.09,0,.09,0,0.11-0.06,0.06-.25.14-0.5,0.2-0.75s0.14-.5.2-0.75l0.7,0.17c0.06,0,0,.06,0,0.11C8.32,13,8.21,13.43,8.1,13.9c0,0.06,0,.08.06,0.11l0.79,0.19c0.14,0.06.14,0,.17-0.08,0.11-.44.23-0.91,0.34-1.36a0.12,0.12,0,0,1,.17-0.08,5.91,5.91,0,0,0,1.72.06,1.76,1.76,0,0,0,1.15-.61,2.7,2.7,0,0,0,.51-1A2.15,2.15,0,0,0,13,10.16a1.75,1.75,0,0,0-.68-0.94L12,9a0.63,0.63,0,0,0,.11,0,1.73,1.73,0,0,0,.62-0.36,1.72,1.72,0,0,0,.42-0.8A1.64,1.64,0,0,0,13,6.51a2.37,2.37,0,0,0-.73-0.66l-0.93-.42c-0.09,0-.11-0.05-0.09-0.14a2.3,2.3,0,0,0,.11-0.42c0.08-.33.17-0.66,0.25-1,0,0,0,0-.06,0C11.28,3.74,11,3.68,10.72,3.6c-0.06,0-.09,0-0.09.06L10.55,4c-0.11.36-.2,0.69-0.28,1.05a0.24,0.24,0,0,1-.09.08L9.48,5a0.21,0.21,0,0,0,0-.11c0.11-.44.23-0.91,0.34-1.36,0-.06,0-0.08-0.06-0.11Q9.38,3.3,9,3.18c-0.09,0-.11,0-0.14.08-0.11.47-.23,0.91-0.34,1.39,0,0.08-.06.11-0.14,0.08L7.42,4.51,6.5,4.29h0Zm1.43,6.84c0.11-.42.2-0.8,0.31-1.19s0.14-.53.2-0.8c0-.08,0-0.11.11-0.08a5.72,5.72,0,0,1,1.66.5,1.71,1.71,0,0,1,.59.5,0.88,0.88,0,0,1-.45,1.3,2.21,2.21,0,0,1-1,.08A7.91,7.91,0,0,1,8,11.16,0.1,0.1,0,0,0,7.93,11.13Zm2.36-2.82a9,9,0,0,1-1.24-.14L8.75,8.09C8.69,8.06,8.66,8,8.69,8,8.86,7.39,9,6.84,9.14,6.26c0-.08.06-0.11,0.14-0.08a8.63,8.63,0,0,1,1.21.36,1.32,1.32,0,0,1,.65.53,0.8,0.8,0,0,1-.53,1.19l-0.31.06h0Z"/>
</svg>
