<svg xmlns="http://www.w3.org/2000/svg" viewBox="0 0 22 22">
  <g id="Page-1">
    <g id="referal">
      <g id="link">
        <g id="button">
          <g id="copy">
            <path d="M19,22H10a3,3,0,0,1-3-3V10a3,3,0,0,1,3-3h9a3,3,0,0,1,3,3v9A3,3,0,0,1,19,22ZM10,9a1,1,0,0,0-1,1v9a1,1,0,0,0,1,1h9a1,1,0,0,0,1-1V10a1,1,0,0,0-1-1H10Z"/>
            <path d="M4,15H3a3,3,0,0,1-3-3V3A3,3,0,0,1,3,0h9a3,3,0,0,1,3,3V4a1,1,0,0,1-2,0V3a1,1,0,0,0-1-1H3A1,1,0,0,0,2,3v9a1,1,0,0,0,1,1H4A1,1,0,0,1,4,15Z"/>
          </g>
        </g>
      </g>
    </g>
  </g>
</svg>
