<svg xmlns="http://www.w3.org/2000/svg" viewBox="0 0 40 40">
  <g id="Page-1">
    <g id="referal">
      <g id="link">
        <g id="fb">
          <path id="Rectangle-8" d="M20,0h0A20,20,0,0,1,40,20h0A20,20,0,0,1,20,40h0A20,20,0,0,1,0,20H0A20,20,0,0,1,20,0Z"/>
          <path id="Combined-Shape" d="M28,31H17.89V20.93H14.5V17h3.39V14.11c0-3.36,2.05-5.19,5-5.19a28.1,28.1,0,0,1,3,.15v3.51H23.88c-1.63,0-1.94.77-1.94,1.91V17h3.89l-0.51,3.92H21.94V31H28Z" fill="#fff"/>
        </g>
      </g>
    </g>
  </g>
</svg>
