<svg xmlns="http://www.w3.org/2000/svg" viewBox="0 0 60 60">
  <g id="Page-1">
    <g id="referal">
      <g id="_1-copy-2" data-name="1-copy-2">
        <g id="num">
          <path d="M30,60A30,30,0,1,1,60,30,30,30,0,0,1,30,60ZM30,2A28,28,0,1,0,58,30,28,28,0,0,0,30,2Z" fill="#a1aab3"/>
          <g id="Group">
            <path id="Shape" d="M38.66,41.18A14.88,14.88,0,0,0,37,39.12a14.5,14.5,0,0,0-6.61-3.84,6.94,6.94,0,0,0,3.19-5.83V26.67a6.83,6.83,0,1,0-13.66,0v2.77a6.94,6.94,0,0,0,3.2,5.84,14.47,14.47,0,0,0-6.62,3.84,14.83,14.83,0,0,0-1.64,2,2.37,2.37,0,0,0-.18,2.44,2.32,2.32,0,0,0,2.06,1.28h20a2.3,2.3,0,0,0,2-1.23A2.36,2.36,0,0,0,38.66,41.18Z"/>
            <path id="Shape-2" data-name="Shape" d="M46.6,37.43a14.88,14.88,0,0,0-1.7-2.07,14.5,14.5,0,0,0-6.6-3.84,6.94,6.94,0,0,0,3.16-5.83V22.91a6.9,6.9,0,0,0-4.09-6.33A6.75,6.75,0,0,0,30,17.86a8.16,8.16,0,0,1,5.76,7.81v2.77a8.15,8.15,0,0,1-2,5.36,15.83,15.83,0,0,1,5,3.44,16.15,16.15,0,0,1,1.85,2.24,3.51,3.51,0,0,1,.58,1.58h3.42a2.3,2.3,0,0,0,2-1.23A2.36,2.36,0,0,0,46.6,37.43Z"/>
          </g>
        </g>
      </g>
    </g>
  </g>
</svg>
