<svg xmlns="http://www.w3.org/2000/svg" viewBox="0 0 14.62 13.95">
  <title>star-full</title>
  <g>
    <path class="cls-1" d="M7.31,0.78l2,4.07L13.81,5.5,10.56,8.67l0.77,4.47L7.31,11l-4,2.11L4.06,8.67,0.81,5.5,5.3,4.84Z"/>
    <path class="cls-1" d="M3.3,14a0.81,0.81,0,0,1-.8-1L3.19,9,0.25,6.08A0.81,0.81,0,0,1,.69,4.7l4.07-.6L6.58,0.42A0.85,0.85,0,0,1,8,.42L9.86,4.1l4.07,0.6a0.81,0.81,0,0,1,.45,1.39L11.44,8.95,12.13,13a0.81,0.81,0,0,1-1.18.86L7.31,11.94,3.67,13.86A0.81,0.81,0,0,1,3.3,14ZM2.56,6.07l2.07,2a0.81,0.81,0,0,1,.23.72L4.37,11.65l2.56-1.35a0.81,0.81,0,0,1,.76,0l2.56,1.34L9.76,8.8A0.81,0.81,0,0,1,10,8.08l2.07-2L9.2,5.65A0.81,0.81,0,0,1,8.59,5.2L7.31,2.61,6,5.2a0.81,0.81,0,0,1-.61.44Z"/>
  </g>
</svg>
