<svg xmlns="http://www.w3.org/2000/svg" viewBox="0 0 21.8 20.78">
  <title>star</title>
  <path class="cls-1" d="M4.72,20.78a0.9,0.9,0,0,1-.89-1.05l1.1-6.41L0.27,8.77a0.9,0.9,0,0,1,.5-1.54L7.21,6.3l2.88-5.84a0.94,0.94,0,0,1,1.61,0L14.59,6.3,21,7.24a0.9,0.9,0,0,1,.5,1.54l-4.66,4.54L18,19.73a0.9,0.9,0,0,1-1.31.95l-5.76-3-5.76,3A0.9,0.9,0,0,1,4.72,20.78Zm6.18-5.05a0.91,0.91,0,0,1,.42.1l4.57,2.4L15,13.15a0.9,0.9,0,0,1,.26-0.8L19,8.76,13.86,8a0.9,0.9,0,0,1-.68-0.49L10.9,2.89,8.62,7.52A0.9,0.9,0,0,1,7.94,8l-5.11.75,3.69,3.6a0.9,0.9,0,0,1,.26.8L5.92,18.23l4.57-2.4A0.91,0.91,0,0,1,10.9,15.73Z"/>
</svg>
